<svg width="326" height="84" viewBox="0 0 326 84" fill="none" xmlns="http://www.w3.org/2000/svg">
<rect width="326" height="84" rx="10" fill="#05A310"/>
<path d="M105.607 43.88C104.62 43.88 103.66 43.72 102.727 43.4C101.82 43.0533 100.94 42.52 100.087 41.8C99.2604 41.0533 98.447 40.08 97.647 38.88L100.167 37.16C101.074 38.52 101.927 39.4933 102.727 40.08C103.527 40.6667 104.434 40.96 105.447 40.96C106.54 40.96 107.434 40.5467 108.127 39.72C108.82 38.8933 109.167 37.5333 109.167 35.64C109.167 33.5867 108.767 32.1067 107.967 31.2C107.194 30.2667 106.114 29.8 104.727 29.8C103.9 29.8 103.114 29.9067 102.367 30.12C101.62 30.3067 100.954 30.56 100.367 30.88L99.367 28.2C100.247 27.7467 101.167 27.4133 102.127 27.2C103.114 26.9867 104.034 26.88 104.887 26.88C106.38 26.88 107.687 27.2 108.807 27.84C109.927 28.4533 110.807 29.4133 111.447 30.72C112.087 32 112.407 33.6533 112.407 35.68C112.407 37.3867 112.194 38.7733 111.767 39.84C111.367 40.9067 110.834 41.7333 110.167 42.32C109.5 42.9067 108.767 43.32 107.967 43.56C107.167 43.7733 106.38 43.88 105.607 43.88ZM122.287 51C121.14 51 120.18 50.88 119.407 50.64C118.66 50.3733 118.06 50 117.607 49.52C117.18 49.0667 116.86 48.5067 116.647 47.84C116.46 47.1733 116.367 46.2533 116.367 45.08V26.88L119.567 27.32V44.92C119.567 45.64 119.607 46.1733 119.687 46.52C119.767 46.84 119.887 47.1067 120.047 47.32C120.34 47.6933 120.767 47.92 121.327 48C121.914 48.0533 122.487 48.08 123.047 48.08L122.727 51H122.287ZM116.459 25.36C115.979 23.6 115.486 22.1867 114.979 21.12C114.446 20.0267 113.859 19.24 113.219 18.76C112.552 18.28 111.752 18.04 110.819 18.04C110.526 18.04 110.192 18.0667 109.819 18.12C109.446 18.1733 109.086 18.2667 108.739 18.4L107.779 15.64C108.339 15.4533 108.899 15.3333 109.459 15.28C110.019 15.2 110.539 15.16 111.019 15.16C111.952 15.16 112.819 15.3067 113.619 15.6C114.419 15.8667 115.152 16.3733 115.819 17.12C116.486 17.84 117.112 18.8667 117.699 20.2C118.286 21.5333 118.819 23.2533 119.299 25.36H116.459ZM139.859 51C138.392 51 137.059 50.7333 135.859 50.2C134.686 49.64 133.619 48.92 132.659 48.04C131.726 47.16 130.872 46.2 130.099 45.16C129.352 44.0933 128.659 43.04 128.019 42L128.339 40.4C129.539 40.32 130.712 40.0533 131.859 39.6C133.032 39.1467 133.992 38.48 134.739 37.6C135.512 36.72 135.899 35.6267 135.899 34.32C135.899 32.8267 135.446 31.7067 134.539 30.96C133.632 30.1867 132.432 29.8 130.939 29.8C129.979 29.8 129.072 29.8933 128.219 30.08C127.392 30.2667 126.512 30.5867 125.579 31.04L124.539 28.28C125.526 27.8533 126.566 27.52 127.659 27.28C128.779 27.0133 129.899 26.88 131.019 26.88C132.646 26.88 134.072 27.16 135.299 27.72C136.526 28.28 137.486 29.1067 138.179 30.2C138.872 31.2933 139.219 32.6533 139.219 34.28C139.219 35.72 138.899 37.0133 138.259 38.16C137.646 39.28 136.806 40.24 135.739 41.04C134.672 41.84 133.486 42.4533 132.179 42.88C130.872 43.28 129.552 43.48 128.219 43.48C126.992 43.48 126.072 43.2933 125.459 42.92C124.846 42.5467 124.539 41.92 124.539 41.04C124.539 40.3733 124.766 39.8667 125.219 39.52C125.672 39.1467 126.259 38.96 126.979 38.96C127.672 38.96 128.352 39.1067 129.019 39.4C129.686 39.6933 130.459 40.28 131.339 41.16H130.819C132.072 42.9733 133.179 44.3867 134.139 45.4C135.126 46.3867 136.099 47.0667 137.059 47.44C138.019 47.8133 139.086 48 140.259 48H140.819L140.459 51H139.859ZM157.031 51.4C154.658 51.4 152.591 51.08 150.831 50.44C149.071 49.8 147.618 48.9333 146.471 47.84C145.325 46.72 144.458 45.44 143.871 44C143.311 42.56 143.031 41.04 143.031 39.44C143.031 37.9467 143.165 36.6133 143.431 35.44C143.698 34.2667 144.085 33.2133 144.591 32.28L147.631 33.68C147.258 34.5067 146.951 35.4 146.711 36.36C146.498 37.2933 146.391 38.32 146.391 39.44C146.391 41.2267 146.805 42.8 147.631 44.16C148.485 45.52 149.698 46.5867 151.271 47.36C152.845 48.1067 154.738 48.48 156.951 48.48C158.418 48.48 159.791 48.3467 161.071 48.08C162.378 47.7867 163.685 47.3467 164.991 46.76L166.311 49.6C165.245 50.0267 164.245 50.3733 163.311 50.64C162.378 50.9067 161.418 51.0933 160.431 51.2C159.445 51.3333 158.311 51.4 157.031 51.4ZM158.071 44.56C156.391 44.56 154.751 44.16 153.151 43.36C151.551 42.56 150.085 41.2267 148.751 39.36L151.471 37.72C152.405 39.0267 153.418 40.0133 154.511 40.68C155.605 41.3467 156.805 41.68 158.111 41.68C158.965 41.68 159.671 41.5333 160.231 41.24C160.791 40.92 161.071 40.3867 161.071 39.64C161.071 38.92 160.805 38.3333 160.271 37.88C159.765 37.4267 158.738 36.92 157.191 36.36C155.485 35.7467 154.205 35.04 153.351 34.24C152.525 33.44 152.111 32.4533 152.111 31.28C152.111 29.9467 152.631 28.8933 153.671 28.12C154.711 27.32 156.245 26.92 158.271 26.92C158.938 26.92 159.631 26.9733 160.351 27.08C161.071 27.16 161.698 27.2667 162.231 27.4L161.631 30.28C161.045 30.12 160.445 30 159.831 29.92C159.218 29.84 158.538 29.8 157.791 29.8C156.965 29.8 156.338 29.92 155.911 30.16C155.511 30.4 155.311 30.76 155.311 31.24C155.311 31.6933 155.538 32.0933 155.991 32.44C156.445 32.7867 157.325 33.2 158.631 33.68C160.791 34.4533 162.271 35.3067 163.071 36.24C163.871 37.1733 164.271 38.2933 164.271 39.6C164.271 41.2 163.711 42.4267 162.591 43.28C161.471 44.1333 159.965 44.56 158.071 44.56ZM176.064 51C174.917 51 173.971 50.88 173.224 50.64C172.477 50.3733 171.864 50 171.384 49.52C170.931 49.0667 170.597 48.5067 170.384 47.84C170.197 47.1733 170.104 46.2533 170.104 45.08V26.88L173.304 27.28V44.92C173.304 45.6667 173.344 46.2 173.424 46.52C173.504 46.84 173.664 47.1333 173.904 47.4C174.197 47.7467 174.597 47.9467 175.104 48C175.637 48.0533 176.197 48.08 176.784 48.08L176.464 51H176.064ZM199.05 51.4C197.343 51.4 195.97 51.08 194.93 50.44C193.89 49.7733 193.13 48.92 192.65 47.88C192.197 46.84 191.97 45.7467 191.97 44.6C191.97 43.1867 192.223 41.8667 192.73 40.64C193.263 39.4133 194.05 38.2267 195.09 37.08C196.157 35.9067 197.477 34.72 199.05 33.52C200.01 32.7733 200.957 32.0667 201.89 31.4C202.823 30.7067 203.81 29.9867 204.85 29.24C205.917 28.4933 207.09 27.6933 208.37 26.84L210.17 29.44C208.89 30.2667 207.703 31.04 206.61 31.76C205.517 32.48 204.463 33.1867 203.45 33.88C202.463 34.5733 201.477 35.2933 200.49 36.04C198.997 37.1333 197.877 38.1733 197.13 39.16C196.383 40.1467 195.877 41.08 195.61 41.96C195.37 42.84 195.25 43.7067 195.25 44.56C195.25 45.7867 195.543 46.7467 196.13 47.44C196.717 48.1333 197.663 48.48 198.97 48.48C200.09 48.48 200.983 48.1467 201.65 47.48C202.317 46.7867 202.65 45.6933 202.65 44.2C202.65 42.52 202.343 40.9733 201.73 39.56C201.143 38.1467 200.29 36.8267 199.17 35.6C198.103 34.3467 196.93 33.28 195.65 32.4C194.37 31.52 192.97 30.8533 191.45 30.4C189.93 29.92 188.263 29.68 186.45 29.68C184.717 29.68 183.477 30.1067 182.73 30.96C181.983 31.7867 181.61 32.7467 181.61 33.84C181.61 34.9867 181.903 35.8533 182.49 36.44C183.077 37 183.823 37.28 184.73 37.28C185.957 37.28 186.823 36.96 187.33 36.32C187.863 35.68 188.13 34.7867 188.13 33.64C188.13 32.7867 187.983 31.9867 187.69 31.24C187.423 30.4933 187.037 29.8267 186.53 29.24L189.37 28.8C189.877 29.3867 190.33 30.0933 190.73 30.92C191.13 31.7467 191.33 32.7333 191.33 33.88C191.33 34.6267 191.21 35.3867 190.97 36.16C190.757 36.9067 190.397 37.5867 189.89 38.2C189.383 38.7867 188.703 39.2667 187.85 39.64C187.023 40.0133 185.983 40.2 184.73 40.2C183.37 40.2 182.223 39.92 181.29 39.36C180.357 38.7733 179.637 38 179.13 37.04C178.65 36.0533 178.41 34.9733 178.41 33.8C178.41 32.5467 178.73 31.4 179.37 30.36C180.01 29.2933 180.943 28.4533 182.17 27.84C183.397 27.2 184.903 26.88 186.69 26.88C189.703 26.88 192.397 27.4667 194.77 28.64C197.17 29.7867 199.343 31.4267 201.29 33.56C202.703 35.1333 203.823 36.8133 204.65 38.6C205.503 40.3867 205.93 42.2667 205.93 44.24C205.93 46.5067 205.303 48.2667 204.05 49.52C202.823 50.7733 201.157 51.4 199.05 51.4ZM226.46 51C224.994 51 223.66 50.7333 222.46 50.2C221.287 49.64 220.22 48.92 219.26 48.04C218.327 47.16 217.474 46.2 216.7 45.16C215.954 44.0933 215.26 43.04 214.62 42L214.94 40.4C216.14 40.32 217.314 40.0533 218.46 39.6C219.634 39.1467 220.594 38.48 221.34 37.6C222.114 36.72 222.5 35.6267 222.5 34.32C222.5 32.8267 222.047 31.7067 221.14 30.96C220.234 30.1867 219.034 29.8 217.54 29.8C216.58 29.8 215.674 29.8933 214.82 30.08C213.994 30.2667 213.114 30.5867 212.18 31.04L211.14 28.28C212.127 27.8533 213.167 27.52 214.26 27.28C215.38 27.0133 216.5 26.88 217.62 26.88C219.247 26.88 220.674 27.16 221.9 27.72C223.127 28.28 224.087 29.1067 224.78 30.2C225.474 31.2933 225.82 32.6533 225.82 34.28C225.82 35.72 225.5 37.0133 224.86 38.16C224.247 39.28 223.407 40.24 222.34 41.04C221.274 41.84 220.087 42.4533 218.78 42.88C217.474 43.28 216.154 43.48 214.82 43.48C213.594 43.48 212.674 43.2933 212.06 42.92C211.447 42.5467 211.14 41.92 211.14 41.04C211.14 40.3733 211.367 39.8667 211.82 39.52C212.274 39.1467 212.86 38.96 213.58 38.96C214.274 38.96 214.954 39.1067 215.62 39.4C216.287 39.6933 217.06 40.28 217.94 41.16H217.42C218.674 42.9733 219.78 44.3867 220.74 45.4C221.727 46.3867 222.7 47.0667 223.66 47.44C224.62 47.8133 225.687 48 226.86 48H227.42L227.06 51H226.46Z" fill="white"/>
</svg>
