<svg width="326" height="84" viewBox="0 0 326 84" fill="none" xmlns="http://www.w3.org/2000/svg">
<rect width="326" height="84" rx="10" fill="#FF0000"/>
<path d="M142.102 52.4C139.595 52.4 137.409 51.8267 135.542 50.68C133.702 49.5333 132.275 47.7733 131.262 45.4C130.249 43.0267 129.742 40 129.742 36.32C129.742 34.08 129.995 31.9067 130.502 29.8C131.009 27.6933 131.822 25.8 132.942 24.12C134.062 22.44 135.529 21.1067 137.342 20.12C139.155 19.1333 141.369 18.64 143.982 18.64C144.862 18.64 145.609 18.68 146.222 18.76C146.835 18.84 147.422 18.9467 147.982 19.08L147.422 21.96C146.995 21.8267 146.489 21.7333 145.902 21.68C145.315 21.6267 144.715 21.6 144.102 21.6C141.969 21.6 140.182 22.04 138.742 22.92C137.329 23.7733 136.209 24.92 135.382 26.36C134.555 27.7733 133.955 29.36 133.582 31.12C133.235 32.88 133.062 34.6533 133.062 36.44C133.062 39.48 133.435 41.96 134.182 43.88C134.929 45.8 135.969 47.2133 137.302 48.12C138.662 49.0267 140.222 49.48 141.982 49.48C143.582 49.48 144.849 49.1333 145.782 48.44C146.742 47.72 147.222 46.6267 147.222 45.16C147.222 43.88 146.835 42.7733 146.062 41.84C145.289 40.88 144.262 40.1867 142.982 39.76L142.942 38.52L145.782 37.92C147.355 38.8 148.529 39.92 149.302 41.28C150.075 42.6133 150.462 43.96 150.462 45.32C150.462 47.5067 149.715 49.24 148.222 50.52C146.755 51.7733 144.715 52.4 142.102 52.4ZM140.942 41.2L140.342 38.28C141.595 38.2 142.742 38.0133 143.782 37.72C144.822 37.4267 145.649 36.9867 146.262 36.4C146.902 35.8133 147.222 35.0667 147.222 34.16C147.222 33.12 146.862 32.3067 146.142 31.72C145.449 31.1333 144.475 30.84 143.222 30.84C142.395 30.84 141.582 30.9333 140.782 31.12C139.982 31.28 139.129 31.5867 138.222 32.04L137.182 29.32C138.142 28.8933 139.115 28.5467 140.102 28.28C141.115 28.0133 142.169 27.88 143.262 27.88C144.915 27.88 146.262 28.1467 147.302 28.68C148.369 29.2133 149.155 29.9467 149.662 30.88C150.169 31.8133 150.422 32.8667 150.422 34.04C150.422 35.24 150.142 36.28 149.582 37.16C149.049 38.0133 148.329 38.7333 147.422 39.32C146.515 39.88 145.502 40.32 144.382 40.64C143.262 40.9333 142.115 41.12 140.942 41.2ZM165.462 46.76C164.395 46.76 163.342 46.6 162.302 46.28C161.289 45.9333 160.342 45.4267 159.462 44.76C158.609 44.0933 157.849 43.24 157.182 42.2L157.582 40.08L157.942 39.88C159.435 39.6667 160.702 39.1067 161.742 38.2C162.782 37.2667 163.302 36.1333 163.302 34.8C163.302 33.52 162.929 32.5333 162.182 31.84C161.462 31.1467 160.315 30.8 158.742 30.8C158.155 30.8 157.489 30.88 156.742 31.04C156.022 31.1733 155.355 31.3867 154.742 31.68L153.662 28.96C154.302 28.6667 155.089 28.4133 156.022 28.2C156.955 27.9867 157.902 27.88 158.862 27.88C160.489 27.88 161.862 28.16 162.982 28.72C164.129 29.2533 164.995 30.04 165.582 31.08C166.195 32.12 166.502 33.3867 166.502 34.88C166.502 36.3467 166.075 37.6667 165.222 38.84C164.369 39.9867 163.222 40.8933 161.782 41.56C160.369 42.2 158.809 42.52 157.102 42.52C156.409 42.52 155.809 42.4267 155.302 42.24C154.822 42.0533 154.449 41.7733 154.182 41.4C153.942 41.0267 153.822 40.5733 153.822 40.04C153.822 39.5867 154.009 39.16 154.382 38.76C154.782 38.36 155.382 38.16 156.182 38.16C157.009 38.16 157.689 38.3333 158.222 38.68C158.755 39.0267 159.315 39.5333 159.902 40.2L160.462 41.72C161.102 42.3867 161.769 42.92 162.462 43.32C163.182 43.6933 164.142 43.88 165.342 43.88C166.675 43.88 167.795 43.6667 168.702 43.24C169.609 42.7867 170.449 42.2 171.222 41.48L172.862 44.08C171.795 44.9067 170.715 45.56 169.622 46.04C168.529 46.52 167.142 46.76 165.462 46.76ZM184.212 46.76C183.145 46.76 182.092 46.6 181.052 46.28C180.039 45.9333 179.092 45.4267 178.212 44.76C177.359 44.0933 176.599 43.24 175.932 42.2L176.332 40.08L176.692 39.88C178.185 39.6667 179.452 39.1067 180.492 38.2C181.532 37.2667 182.052 36.1333 182.052 34.8C182.052 33.52 181.679 32.5333 180.932 31.84C180.212 31.1467 179.065 30.8 177.492 30.8C176.905 30.8 176.239 30.88 175.492 31.04C174.772 31.1733 174.105 31.3867 173.492 31.68L172.412 28.96C173.052 28.6667 173.839 28.4133 174.772 28.2C175.705 27.9867 176.652 27.88 177.612 27.88C179.239 27.88 180.612 28.16 181.732 28.72C182.879 29.2533 183.745 30.04 184.332 31.08C184.945 32.12 185.252 33.3867 185.252 34.88C185.252 36.3467 184.825 37.6667 183.972 38.84C183.119 39.9867 181.972 40.8933 180.532 41.56C179.119 42.2 177.559 42.52 175.852 42.52C175.159 42.52 174.559 42.4267 174.052 42.24C173.572 42.0533 173.199 41.7867 172.932 41.44C172.692 41.0667 172.572 40.6267 172.572 40.12C172.572 39.6133 172.759 39.16 173.132 38.76C173.532 38.36 174.132 38.16 174.932 38.16C175.759 38.16 176.439 38.3333 176.972 38.68C177.505 39.0267 178.065 39.5333 178.652 40.2L179.212 41.72C179.852 42.3867 180.519 42.92 181.212 43.32C181.932 43.6933 182.892 43.88 184.092 43.88C185.265 43.88 186.265 43.72 187.092 43.4C187.919 43.0533 188.639 42.6267 189.252 42.12C189.865 41.5867 190.439 41.04 190.972 40.48V44.36C190.172 45.0267 189.252 45.6 188.212 46.08C187.172 46.5333 185.839 46.76 184.212 46.76ZM196.532 52C195.385 52 194.425 51.88 193.652 51.64C192.905 51.3733 192.305 51 191.852 50.52C191.425 50.0667 191.105 49.5067 190.892 48.84C190.705 48.1733 190.612 47.2533 190.612 46.08V27.88L193.812 28.32V45.92C193.812 46.64 193.852 47.1733 193.932 47.52C194.012 47.84 194.132 48.1067 194.292 48.32C194.585 48.6933 195.012 48.92 195.572 49C196.159 49.0533 196.719 49.08 197.252 49.08L196.972 52H196.532Z" fill="white"/>
</svg>
