<svg width="326" height="84" viewBox="0 0 326 84" fill="none" xmlns="http://www.w3.org/2000/svg">
<rect width="326" height="84" rx="10" fill="#FF0000"/>
<path d="M151.524 26.32V29H146.324C147.258 30.0133 147.724 31.2533 147.724 32.72C147.724 35.5733 146.338 37.3867 143.564 38.16C145.031 38.2933 146.311 38.8933 147.404 39.96C148.524 41.0267 149.084 42.4267 149.084 44.16C149.084 46.2933 148.311 48.0133 146.764 49.32C145.218 50.6 143.031 51.24 140.204 51.24C138.364 51.24 136.524 50.8933 134.684 50.2V47.32C136.391 48.1467 138.151 48.56 139.964 48.56C141.778 48.56 143.218 48.1867 144.284 47.44C145.378 46.6667 145.924 45.5067 145.924 43.96C145.924 42.5733 145.364 41.4933 144.244 40.72C143.124 39.9467 141.631 39.56 139.764 39.56H137.924V36.84H139.764C142.964 36.84 144.564 35.4667 144.564 32.72C144.564 31.2533 144.004 30.0133 142.884 29H132.604V26.32H151.524ZM191.394 26.32V29H186.754V52H183.634V44.48C182.994 45.4933 182.047 46.3333 180.794 47C179.567 47.6667 178.074 48.0133 176.314 48.04C174.847 48.04 173.527 47.76 172.354 47.2C171.207 46.64 170.327 45.84 169.714 44.8C167.687 46.96 165.127 48.04 162.034 48.04C159.767 48.04 157.9 47.4667 156.434 46.32C154.994 45.1733 154.274 43.5867 154.274 41.56C154.274 39.24 155.3 37.56 157.354 36.52H151.714V33.84H165.394V36.52C162.487 36.52 160.42 36.9867 159.194 37.92C157.994 38.8267 157.394 39.9733 157.394 41.36C157.394 42.5867 157.847 43.5733 158.754 44.32C159.687 45.0667 160.86 45.44 162.274 45.44C163.607 45.44 164.86 45.12 166.034 44.48C167.207 43.84 168.154 43.04 168.874 42.08V41.52C168.874 39.2267 169.9 37.56 171.954 36.52H167.474V33.84H179.954V36.52C177.047 36.52 174.98 36.9867 173.754 37.92C172.554 38.8267 171.954 39.9733 171.954 41.36C171.954 42.6667 172.38 43.68 173.234 44.4C174.114 45.0933 175.26 45.44 176.674 45.44C178.834 45.44 180.527 44.7867 181.754 43.48C183.007 42.1467 183.634 40.6267 183.634 38.92V29H149.714V26.32H191.394Z" fill="white"/>
</svg>
