<svg width="201" height="46" viewBox="0 0 201 46" fill="none" xmlns="http://www.w3.org/2000/svg">
<path fill-rule="evenodd" clip-rule="evenodd" d="M9.59773 0H190.604C195.884 0 200.202 4.31769 200.202 9.59649V35.5685C200.202 40.8494 195.884 45.1671 190.604 45.1671H9.59773C4.3181 45.1671 0 40.8494 0 35.5685V9.59649C0 4.31769 4.3181 0 9.59773 0Z" fill="#FF0000"/>
<path d="M76.9008 32C76.0608 32 75.2768 31.8227 74.5488 31.468C73.8208 31.0947 73.1488 30.6093 72.5328 30.012C71.9168 29.4147 71.3474 28.7613 70.8248 28.052C70.3021 27.324 69.8168 26.596 69.3688 25.868L69.5928 24.888C70.7128 24.7387 71.6648 24.4773 72.4488 24.104C73.2328 23.7307 73.8301 23.236 74.2408 22.62C74.6514 21.9853 74.8568 21.22 74.8568 20.324C74.8568 19.5213 74.7074 18.8867 74.4088 18.42C74.1288 17.9533 73.7741 17.6267 73.3448 17.44C72.9154 17.2347 72.4674 17.132 72.0008 17.132C71.3101 17.132 70.8154 17.2813 70.5168 17.58C70.2368 17.8787 70.0968 18.1867 70.0968 18.504C70.0968 18.8213 70.1714 19.1293 70.3208 19.428C70.4888 19.708 70.8061 19.9693 71.2728 20.212C71.7394 20.436 72.4114 20.6413 73.2888 20.828L72.5608 22.704C71.0114 22.3307 69.8448 21.808 69.0608 21.136C68.2954 20.4453 67.9128 19.5493 67.9128 18.448C67.9128 17.888 68.0621 17.356 68.3608 16.852C68.6594 16.348 69.1168 15.9373 69.7328 15.62C70.3488 15.3027 71.1234 15.144 72.0568 15.144C72.9154 15.144 73.7274 15.34 74.4928 15.732C75.2768 16.1053 75.9114 16.684 76.3968 17.468C76.9008 18.252 77.1528 19.2413 77.1528 20.436C77.1528 21.4067 76.9474 22.2933 76.5368 23.096C76.1261 23.88 75.5568 24.552 74.8288 25.112C74.1194 25.672 73.3168 26.1107 72.4208 26.428C71.5248 26.7267 70.5821 26.876 69.5928 26.876C69.0141 26.876 68.5194 26.82 68.1088 26.708C67.7168 26.5773 67.4181 26.3907 67.2128 26.148C67.0261 25.8867 66.9328 25.56 66.9328 25.168C66.9328 24.7387 67.0914 24.4027 67.4088 24.16C67.7261 23.8987 68.1274 23.768 68.6128 23.768C69.0981 23.768 69.5741 23.8613 70.0408 24.048C70.5074 24.2347 71.0581 24.636 71.6928 25.252L71.3288 25.28C71.9821 26.2133 72.5981 27.0347 73.1768 27.744C73.7741 28.4347 74.3901 28.9667 75.0248 29.34C75.6781 29.7133 76.4061 29.9 77.2088 29.9H77.5728L77.3208 32H76.9008ZM84.2928 32C83.4901 32 82.8274 31.916 82.3048 31.748C81.7821 31.5613 81.3528 31.3 81.0168 30.964C80.6994 30.6467 80.4661 30.2547 80.3168 29.788C80.1861 29.3213 80.1208 28.6773 80.1208 27.856V15.116L82.3888 15.424V27.744C82.3888 28.248 82.4168 28.612 82.4728 28.836C82.5288 29.06 82.6128 29.256 82.7248 29.424C82.9114 29.6853 83.2008 29.844 83.5928 29.9C84.0034 29.9373 84.4048 29.956 84.7968 29.956L84.5728 32H84.2928ZM91.146 32.28C89.69 32.28 88.4113 32.056 87.31 31.608C86.2087 31.1413 85.238 30.5907 84.398 29.956L85.658 28.22C86.5727 28.9293 87.4593 29.4427 88.318 29.76C89.1953 30.0773 90.0913 30.236 91.006 30.236C92.1447 30.236 92.9753 30.04 93.498 29.648C94.0207 29.256 94.282 28.696 94.282 27.968C94.282 27.6133 94.1887 27.24 94.002 26.848C93.834 26.456 93.498 26.0267 92.994 25.56C92.49 25.0933 91.7527 24.58 90.782 24.02L90.026 23.432C89.3727 23.0027 88.794 22.5827 88.29 22.172C87.8047 21.7427 87.4313 21.276 87.17 20.772C86.9087 20.268 86.778 19.6987 86.778 19.064C86.778 17.9067 87.2167 16.964 88.094 16.236C88.99 15.4893 90.1753 15.116 91.65 15.116C92.2473 15.116 92.8167 15.1533 93.358 15.228C93.8993 15.284 94.422 15.3773 94.926 15.508L94.506 17.524C94.0207 17.412 93.582 17.328 93.19 17.272C92.8167 17.216 92.3873 17.188 91.902 17.188C90.95 17.188 90.2407 17.3747 89.774 17.748C89.3073 18.1213 89.074 18.6253 89.074 19.26C89.074 19.596 89.1673 19.932 89.354 20.268C89.5407 20.604 89.8393 20.94 90.25 21.276C90.6607 21.5933 91.202 21.9293 91.874 22.284L92.686 23.292C93.638 23.74 94.394 24.216 94.954 24.72C95.5327 25.2053 95.9433 25.7373 96.186 26.316C96.4473 26.876 96.578 27.492 96.578 28.164C96.578 28.7987 96.4007 29.4333 96.046 30.068C95.71 30.7027 95.1407 31.2347 94.338 31.664C93.554 32.0747 92.49 32.28 91.146 32.28ZM85.714 26.092L84.958 24.104L90.306 22.2L91.062 21.892H100.386L98.986 23.852H96.41C95.906 23.852 95.318 23.8427 94.646 23.824C93.9927 23.7867 93.4513 23.7307 93.022 23.656L91.986 23.684L85.714 26.092ZM103.718 27.492C102.654 27.492 101.702 27.296 100.862 26.904C100.041 26.512 99.3407 25.9613 98.762 25.252C98.1833 24.524 97.7073 23.6653 97.334 22.676C98.4353 22.3587 99.322 21.9387 99.994 21.416C100.666 20.8933 101.002 20.212 101.002 19.372C101.002 18.6813 100.769 18.14 100.302 17.748C99.854 17.3373 99.238 17.132 98.454 17.132C98.0993 17.132 97.8193 17.1507 97.614 17.188C97.4273 17.2067 97.2313 17.2347 97.026 17.272L96.522 15.368C96.7273 15.312 96.9887 15.256 97.306 15.2C97.642 15.144 98.0713 15.116 98.594 15.116C99.546 15.116 100.367 15.284 101.058 15.62C101.767 15.956 102.309 16.4413 102.682 17.076C103.055 17.692 103.242 18.448 103.242 19.344C103.242 20.464 102.906 21.3973 102.234 22.144C101.581 22.872 100.713 23.4507 99.63 23.88L100.078 23.348C100.321 23.908 100.75 24.4027 101.366 24.832C101.982 25.2613 102.738 25.476 103.634 25.476C104.623 25.476 105.463 25.2893 106.154 24.916C106.863 24.5427 107.451 24.104 107.918 23.6L107.89 26.176C107.367 26.5493 106.779 26.8667 106.126 27.128C105.473 27.3707 104.67 27.492 103.718 27.492ZM112.006 32C111.203 32 110.531 31.916 109.99 31.748C109.467 31.5613 109.047 31.3 108.73 30.964C108.431 30.6467 108.207 30.2547 108.058 29.788C107.927 29.3213 107.862 28.6773 107.862 27.856V15.116L110.102 15.424V27.744C110.102 28.248 110.13 28.6213 110.186 28.864C110.242 29.088 110.326 29.2747 110.438 29.424C110.643 29.6853 110.942 29.844 111.334 29.9C111.745 29.9373 112.137 29.956 112.51 29.956L112.314 32H112.006ZM117.474 31.664C116.634 30.992 115.859 30.292 115.15 29.564C114.459 28.8173 113.899 28.0427 113.47 27.24C113.04 26.4373 112.826 25.588 112.826 24.692C112.826 23.964 112.947 23.32 113.19 22.76C113.432 22.2 113.778 21.724 114.226 21.332C114.786 20.8467 115.504 20.4827 116.382 20.24C117.278 19.9973 118.547 19.876 120.19 19.876H123.326V21.92H120.022C119.182 21.92 118.51 21.948 118.006 22.004C117.502 22.06 117.1 22.1533 116.802 22.284C116.503 22.396 116.232 22.5453 115.99 22.732C115.71 22.956 115.495 23.236 115.346 23.572C115.196 23.8893 115.122 24.2627 115.122 24.692C115.122 25.3267 115.271 25.9333 115.57 26.512C115.887 27.0907 116.335 27.6693 116.914 28.248C117.492 28.8267 118.174 29.4427 118.958 30.096L117.474 31.664ZM126.91 32C126.107 32 125.435 31.916 124.894 31.748C124.371 31.5613 123.951 31.3 123.634 30.964C123.335 30.6467 123.111 30.2547 122.962 29.788C122.831 29.3213 122.766 28.6773 122.766 27.856V15.116L125.006 15.424V27.744C125.006 28.248 125.034 28.6213 125.09 28.864C125.146 29.088 125.23 29.2747 125.342 29.424C125.547 29.6853 125.846 29.844 126.238 29.9C126.648 29.9373 127.04 29.956 127.414 29.956L127.218 32H126.91ZM133.217 32C132.414 32 131.752 31.916 131.229 31.748C130.706 31.5613 130.277 31.3 129.941 30.964C129.624 30.6467 129.39 30.2547 129.241 29.788C129.11 29.3213 129.045 28.6773 129.045 27.856V15.116L131.285 15.396V27.744C131.285 28.2667 131.313 28.64 131.369 28.864C131.425 29.088 131.537 29.2933 131.705 29.48C131.91 29.7227 132.19 29.8627 132.545 29.9C132.918 29.9373 133.31 29.956 133.721 29.956L133.497 32H133.217Z" fill="white"/>
</svg>
