<svg width="326" height="84" viewBox="0 0 326 84" fill="none" xmlns="http://www.w3.org/2000/svg">
<rect width="326" height="84" rx="10" fill="#05A310"/>
<path d="M133.193 47.88C131.966 47.88 130.806 47.7067 129.713 47.36C128.619 47.0133 127.606 46.4267 126.673 45.6C125.739 44.7467 124.899 43.6133 124.153 42.2L124.993 39.88C126.486 39.6667 127.753 39.1067 128.793 38.2C129.833 37.2667 130.353 36.1333 130.353 34.8C130.353 33.52 129.979 32.5333 129.233 31.84C128.513 31.1467 127.366 30.8 125.793 30.8C125.206 30.8 124.539 30.88 123.793 31.04C123.073 31.1733 122.406 31.3867 121.793 31.68L120.713 28.96C121.353 28.6667 122.139 28.4133 123.073 28.2C124.006 27.9867 124.953 27.88 125.913 27.88C127.539 27.88 128.913 28.16 130.033 28.72C131.179 29.2533 132.046 30.04 132.633 31.08C133.246 32.12 133.553 33.3867 133.553 34.88C133.553 36.3467 133.113 37.6667 132.233 38.84C131.379 39.9867 130.246 40.8933 128.833 41.56C127.419 42.2 125.859 42.52 124.153 42.52C123.433 42.52 122.833 42.4267 122.353 42.24C121.873 42.0533 121.499 41.7867 121.233 41.44C120.993 41.0667 120.873 40.6267 120.873 40.12C120.873 39.5867 121.059 39.1333 121.433 38.76C121.833 38.36 122.433 38.16 123.233 38.16C124.059 38.16 124.739 38.3333 125.273 38.68C125.806 39 126.366 39.5067 126.953 40.2L127.513 41.76C127.993 42.8 128.713 43.6 129.673 44.16C130.633 44.72 131.726 45 132.953 45C133.966 45 134.833 44.8533 135.553 44.56C136.273 44.2667 136.859 43.8667 137.313 43.36C137.979 42.6133 138.406 41.76 138.593 40.8C138.806 39.84 138.913 38.6267 138.913 37.16V34.12L142.113 34.52V38.04C142.113 40.2267 141.726 42.0533 140.953 43.52C140.206 44.9867 139.153 46.08 137.793 46.8C136.459 47.52 134.926 47.88 133.193 47.88ZM144.433 42.88C143.766 42.88 143.113 42.76 142.473 42.52C141.833 42.28 141.246 41.8533 140.713 41.24C140.179 40.6267 139.726 39.7733 139.353 38.68L141.673 37.76C141.886 38.6133 142.233 39.2 142.713 39.52C143.193 39.84 143.753 40 144.393 40C145.353 40 146.179 39.7467 146.873 39.24C147.566 38.7067 148.206 37.9867 148.793 37.08L149.473 40.36C148.806 41.16 148.086 41.7867 147.313 42.24C146.566 42.6667 145.606 42.88 144.433 42.88ZM153.713 52C152.566 52 151.606 51.88 150.833 51.64C150.086 51.3733 149.486 51 149.033 50.52C148.606 50.0667 148.286 49.5067 148.073 48.84C147.886 48.1733 147.793 47.2533 147.793 46.08V27.88L150.993 28.32V45.92C150.993 46.64 151.033 47.1733 151.113 47.52C151.193 47.84 151.313 48.1067 151.473 48.32C151.766 48.6933 152.193 48.92 152.753 49C153.339 49.0533 153.913 49.08 154.473 49.08L154.153 52H153.713ZM164.353 52C163.206 52 162.246 51.88 161.473 51.64C160.699 51.3733 160.086 51 159.633 50.52C159.206 50.0667 158.886 49.5067 158.673 48.84C158.486 48.1733 158.393 47.2533 158.393 46.08V27.88L161.593 28.32V45.92C161.593 46.64 161.633 47.1733 161.713 47.52C161.793 47.84 161.913 48.1067 162.073 48.32C162.366 48.6933 162.793 48.92 163.353 49C163.939 49.0533 164.513 49.08 165.073 49.08L164.753 52H164.353ZM158.473 26.36C157.993 24.6 157.486 23.1867 156.953 22.12C156.446 21.0267 155.859 20.24 155.193 19.76C154.553 19.28 153.766 19.04 152.833 19.04C152.539 19.04 152.206 19.0667 151.833 19.12C151.459 19.1733 151.099 19.2667 150.753 19.4L149.793 16.64C150.353 16.4533 150.913 16.3333 151.473 16.28C152.033 16.2 152.553 16.16 153.033 16.16C153.966 16.16 154.833 16.3067 155.633 16.6C156.433 16.8667 157.166 17.3733 157.833 18.12C158.499 18.84 159.126 19.8667 159.713 21.2C160.299 22.5333 160.833 24.2533 161.313 26.36H158.473ZM178.13 52.4C176.05 52.4 174.33 52.08 172.97 51.44C171.61 50.8 170.597 49.9333 169.93 48.84C169.263 47.72 168.93 46.4267 168.93 44.96C168.93 43.6 169.25 42.3733 169.89 41.28C170.557 40.16 171.517 39.28 172.77 38.64C174.05 37.9733 175.583 37.64 177.37 37.64C177.61 37.64 177.863 37.6533 178.13 37.68C178.397 37.68 178.663 37.6933 178.93 37.72L178.57 40.6C178.383 40.5733 178.197 40.56 178.01 40.56C177.823 40.56 177.623 40.56 177.41 40.56C175.997 40.56 174.757 40.9067 173.69 41.6C172.65 42.2933 172.13 43.4 172.13 44.92C172.13 46.3867 172.623 47.5067 173.61 48.28C174.597 49.0533 176.077 49.44 178.05 49.44C180.157 49.44 181.97 49.0533 183.49 48.28C185.037 47.48 186.303 46.44 187.29 45.16C188.277 43.88 188.997 42.5067 189.45 41.04C189.93 39.5467 190.17 38.1067 190.17 36.72C190.17 35.04 189.957 33.7867 189.53 32.96C189.13 32.1067 188.637 31.5333 188.05 31.24C187.49 30.9467 186.957 30.8 186.45 30.8C185.49 30.8 184.77 31.0933 184.29 31.68C183.837 32.2667 183.61 32.9733 183.61 33.8C183.61 34.8667 184.037 35.8 184.89 36.6C185.77 37.3733 187.223 38 189.25 38.48L188.25 41.32C186.943 40.92 185.69 40.4133 184.49 39.8C183.317 39.1867 182.343 38.3867 181.57 37.4C180.823 36.3867 180.45 35.1067 180.45 33.56C180.45 32.5467 180.663 31.6133 181.09 30.76C181.543 29.9067 182.223 29.2133 183.13 28.68C184.037 28.1467 185.17 27.88 186.53 27.88C187.357 27.88 188.17 28.04 188.97 28.36C189.797 28.6533 190.543 29.16 191.21 29.88C191.903 30.5733 192.45 31.5067 192.85 32.68C193.25 33.8267 193.45 35.2667 193.45 37C193.45 38.8667 193.13 40.72 192.49 42.56C191.877 44.3733 190.93 46.0267 189.65 47.52C188.37 49.0133 186.77 50.2 184.85 51.08C182.93 51.96 180.69 52.4 178.13 52.4ZM172.05 40.56C171.143 40.0533 170.317 39.48 169.57 38.84C168.85 38.1733 168.263 37.4133 167.81 36.56C167.383 35.7067 167.17 34.7067 167.17 33.56C167.17 32.5467 167.423 31.6133 167.93 30.76C168.437 29.88 169.183 29.1867 170.17 28.68C171.157 28.1467 172.37 27.88 173.81 27.88C174.503 27.88 175.17 27.92 175.81 28C176.477 28.08 177.063 28.1867 177.57 28.32L177.01 31.2C176.61 31.0933 176.183 31.0133 175.73 30.96C175.277 30.88 174.757 30.84 174.17 30.84C172.943 30.84 172.01 31.12 171.37 31.68C170.73 32.2133 170.41 32.9067 170.41 33.76C170.41 34.7467 170.69 35.6133 171.25 36.36C171.837 37.1067 172.823 37.8133 174.21 38.48L172.05 40.56ZM204.501 52C203.488 52 202.581 51.8933 201.781 51.68C201.008 51.44 200.355 51.0533 199.821 50.52C199.315 49.9867 198.968 49.3867 198.781 48.72C198.621 48.0267 198.541 47.1467 198.541 46.08V27.8C198.328 26.52 198.021 25.3467 197.621 24.28C197.221 23.1867 196.741 22.2533 196.181 21.48C195.648 20.7067 195.061 20.1067 194.421 19.68C193.755 19.2533 193.061 19.04 192.341 19.04C191.488 19.04 190.741 19.3333 190.101 19.92C189.461 20.5067 189.141 21.5467 189.141 23.04C189.141 23.3867 189.155 23.7467 189.181 24.12C189.208 24.4933 189.248 24.8667 189.301 25.24H186.181C186.128 24.8667 186.075 24.44 186.021 23.96C185.968 23.48 185.941 23.0533 185.941 22.68C185.941 20.52 186.555 18.8933 187.781 17.8C188.981 16.7067 190.515 16.16 192.381 16.16C193.661 16.16 194.821 16.4933 195.861 17.16C196.928 17.8 197.861 18.68 198.661 19.8C199.488 20.8933 200.155 22.12 200.661 23.48C201.195 24.84 201.555 26.24 201.741 27.68V45.92C201.741 46.6667 201.781 47.2 201.861 47.52C201.968 47.8133 202.115 48.0933 202.301 48.36C202.595 48.7067 203.008 48.92 203.541 49C204.101 49.0533 204.661 49.08 205.221 49.08L204.901 52H204.501Z" fill="white"/>
</svg>
