<svg width="326" height="84" viewBox="0 0 326 84" fill="none" xmlns="http://www.w3.org/2000/svg">
<rect width="326" height="84" rx="10" fill="#FEAC00"/>
<path d="M141.118 52C139.972 52 139.012 51.88 138.238 51.64C137.492 51.3733 136.892 51 136.438 50.52C136.012 50.0667 135.692 49.5067 135.478 48.84C135.292 48.1733 135.198 47.2533 135.198 46.08V27.88L138.398 28.32V45.92C138.398 46.64 138.438 47.1733 138.518 47.52C138.598 47.84 138.718 48.1067 138.878 48.32C139.172 48.6933 139.598 48.92 140.158 49C140.745 49.0533 141.305 49.08 141.838 49.08L141.558 52H141.118ZM125.038 45.92C124.505 45.92 123.972 45.7733 123.438 45.48C122.905 45.16 122.412 44.76 121.958 44.28C121.505 43.7733 121.132 43.24 120.838 42.68C120.572 42.0933 120.438 41.5467 120.438 41.04C120.438 40.5867 120.612 40.2 120.958 39.88C121.305 39.5333 121.878 39.36 122.678 39.36H135.678V42.24H126.838V43.4C126.838 44.3067 126.652 44.96 126.278 45.36C125.905 45.7333 125.492 45.92 125.038 45.92ZM123.638 40V34.4C123.638 33.6533 123.598 33.12 123.518 32.8C123.438 32.48 123.318 32.2133 123.158 32C122.892 31.6267 122.465 31.4 121.878 31.32C121.292 31.24 120.718 31.2 120.158 31.2L120.478 28.32H120.918C122.065 28.32 123.012 28.44 123.758 28.68C124.532 28.92 125.145 29.28 125.598 29.76C125.892 30.0533 126.132 30.4 126.318 30.8C126.505 31.2 126.638 31.68 126.718 32.24C126.798 32.7733 126.838 33.44 126.838 34.24V40H123.638ZM153.068 47.72C151.468 47.72 150.095 47.4533 148.948 46.92C147.828 46.3867 146.962 45.6667 146.348 44.76C145.762 43.8267 145.468 42.76 145.468 41.56C145.468 40.44 145.722 39.4267 146.228 38.52C146.735 37.6133 147.508 36.8933 148.548 36.36C149.588 35.8267 150.908 35.56 152.508 35.56C152.882 35.56 153.295 35.5867 153.748 35.64C154.202 35.6933 154.602 35.7467 154.948 35.8L154.468 38.68C154.202 38.6267 153.882 38.5867 153.508 38.56C153.162 38.5067 152.802 38.48 152.428 38.48C151.362 38.48 150.468 38.72 149.748 39.2C149.055 39.6533 148.708 40.4 148.708 41.44C148.708 42.56 149.068 43.4133 149.788 44C150.535 44.56 151.628 44.84 153.068 44.84C154.242 44.84 155.295 44.6533 156.228 44.28C157.188 43.88 158.135 43.24 159.068 42.36L160.588 44.96C160.028 45.4667 159.388 45.9333 158.668 46.36C157.975 46.76 157.175 47.0933 156.268 47.36C155.362 47.6 154.295 47.72 153.068 47.72ZM148.788 39.08C148.015 38.68 147.242 38.2 146.468 37.64C145.722 37.0533 145.108 36.36 144.628 35.56C144.148 34.76 143.908 33.8267 143.908 32.76C143.908 31.2933 144.442 30 145.508 28.88C146.575 27.7333 148.202 26.8267 150.388 26.16L151.548 29.04C150.268 29.3867 149.308 29.8 148.668 30.28C148.055 30.7333 147.642 31.2 147.428 31.68C147.242 32.16 147.148 32.6133 147.148 33.04C147.148 33.8933 147.442 34.6667 148.028 35.36C148.642 36.0267 149.615 36.5867 150.948 37.04L148.788 39.08ZM169.942 45.56C168.422 45.56 167.075 45.28 165.902 44.72C164.728 44.16 163.715 43.3733 162.862 42.36C162.035 41.32 161.355 40.0933 160.822 38.68C162.422 38.2267 163.688 37.6267 164.622 36.88C165.582 36.1333 166.062 35.1467 166.062 33.92C166.062 32.9333 165.728 32.16 165.062 31.6C164.422 31.04 163.542 30.76 162.422 30.76C161.942 30.76 161.555 30.7867 161.262 30.84C160.995 30.8667 160.702 30.9067 160.382 30.96L159.662 28.24C159.955 28.16 160.328 28.08 160.782 28C161.262 27.92 161.875 27.88 162.622 27.88C163.982 27.88 165.155 28.12 166.142 28.6C167.155 29.0533 167.928 29.7333 168.462 30.64C169.022 31.52 169.302 32.6 169.302 33.88C169.302 35.48 168.822 36.8133 167.862 37.88C166.928 38.9467 165.675 39.7867 164.102 40.4L164.782 39.64C165.128 40.44 165.742 41.1467 166.622 41.76C167.502 42.3733 168.582 42.68 169.862 42.68C171.248 42.68 172.435 42.4133 173.422 41.88C174.435 41.3467 175.275 40.72 175.942 40V43.64C175.195 44.2 174.355 44.6667 173.422 45.04C172.488 45.3867 171.328 45.56 169.942 45.56ZM181.822 52C180.675 52 179.728 51.88 178.982 51.64C178.235 51.3733 177.622 51 177.142 50.52C176.688 50.0667 176.355 49.5067 176.142 48.84C175.955 48.1733 175.862 47.2533 175.862 46.08V27.88L179.062 28.28V45.92C179.062 46.6667 179.102 47.2 179.182 47.52C179.262 47.84 179.422 48.1333 179.662 48.4C179.955 48.7467 180.355 48.9467 180.862 49C181.395 49.0533 181.955 49.08 182.542 49.08L182.222 52H181.822ZM205.572 52C204.425 52 203.465 51.88 202.692 51.64C201.945 51.3733 201.345 51 200.892 50.52C200.465 50.0667 200.145 49.5067 199.932 48.84C199.745 48.1733 199.652 47.2533 199.652 46.08V27.88L202.852 28.32V45.92C202.852 46.64 202.892 47.1733 202.972 47.52C203.052 47.84 203.172 48.1067 203.332 48.32C203.625 48.6933 204.052 48.92 204.612 49C205.198 49.0533 205.758 49.08 206.292 49.08L206.012 52H205.572ZM189.492 45.92C188.958 45.92 188.425 45.7733 187.892 45.48C187.358 45.16 186.865 44.76 186.412 44.28C185.958 43.7733 185.585 43.24 185.292 42.68C185.025 42.0933 184.892 41.5467 184.892 41.04C184.892 40.5867 185.065 40.2 185.412 39.88C185.758 39.5333 186.332 39.36 187.132 39.36H200.132V42.24H191.292V43.4C191.292 44.3067 191.105 44.96 190.732 45.36C190.358 45.7333 189.945 45.92 189.492 45.92ZM188.092 40V34.4C188.092 33.6533 188.052 33.12 187.972 32.8C187.892 32.48 187.772 32.2133 187.612 32C187.345 31.6267 186.918 31.4 186.332 31.32C185.745 31.24 185.172 31.2 184.612 31.2L184.932 28.32H185.372C186.518 28.32 187.465 28.44 188.212 28.68C188.985 28.92 189.598 29.28 190.052 29.76C190.345 30.0533 190.585 30.4 190.772 30.8C190.958 31.2 191.092 31.68 191.172 32.24C191.252 32.7733 191.292 33.44 191.292 34.24V40H188.092Z" fill="white"/>
</svg>
