<svg width="326" height="84" viewBox="0 0 326 84" fill="none" xmlns="http://www.w3.org/2000/svg">
<rect width="326" height="84" rx="10" fill="#FF0000"/>
<path d="M135.039 51.4C132.666 51.4 130.599 51.08 128.839 50.44C127.079 49.8 125.626 48.9333 124.479 47.84C123.333 46.72 122.466 45.44 121.879 44C121.319 42.56 121.039 41.04 121.039 39.44C121.039 37.9467 121.173 36.6133 121.439 35.44C121.706 34.2667 122.093 33.2133 122.599 32.28L125.639 33.68C125.266 34.5067 124.959 35.4 124.719 36.36C124.506 37.2933 124.399 38.32 124.399 39.44C124.399 41.2267 124.813 42.8 125.639 44.16C126.493 45.52 127.706 46.5867 129.279 47.36C130.853 48.1067 132.746 48.48 134.959 48.48C136.426 48.48 137.799 48.3467 139.079 48.08C140.386 47.7867 141.693 47.3467 142.999 46.76L144.319 49.6C143.253 50.0267 142.253 50.3733 141.319 50.64C140.386 50.9067 139.426 51.0933 138.439 51.2C137.453 51.3333 136.319 51.4 135.039 51.4ZM136.079 44.56C134.399 44.56 132.759 44.16 131.159 43.36C129.559 42.56 128.093 41.2267 126.759 39.36L129.479 37.72C130.413 39.0267 131.426 40.0133 132.519 40.68C133.613 41.3467 134.813 41.68 136.119 41.68C136.973 41.68 137.679 41.5333 138.239 41.24C138.799 40.92 139.079 40.3867 139.079 39.64C139.079 38.92 138.813 38.3333 138.279 37.88C137.773 37.4267 136.746 36.92 135.199 36.36C133.493 35.7467 132.213 35.04 131.359 34.24C130.533 33.44 130.119 32.4533 130.119 31.28C130.119 29.9467 130.639 28.8933 131.679 28.12C132.719 27.32 134.253 26.92 136.279 26.92C136.946 26.92 137.639 26.9733 138.359 27.08C139.079 27.16 139.706 27.2667 140.239 27.4L139.639 30.28C139.053 30.12 138.453 30 137.839 29.92C137.226 29.84 136.546 29.8 135.799 29.8C134.973 29.8 134.346 29.92 133.919 30.16C133.519 30.4 133.319 30.76 133.319 31.24C133.319 31.6933 133.546 32.0933 133.999 32.44C134.453 32.7867 135.333 33.2 136.639 33.68C138.799 34.4533 140.279 35.3067 141.079 36.24C141.879 37.1733 142.279 38.2933 142.279 39.6C142.279 41.2 141.719 42.4267 140.599 43.28C139.479 44.1333 137.973 44.56 136.079 44.56ZM154.072 51C152.925 51 151.978 50.88 151.232 50.64C150.485 50.3733 149.872 50 149.392 49.52C148.938 49.0667 148.605 48.5067 148.392 47.84C148.205 47.1733 148.112 46.2533 148.112 45.08V26.88L151.312 27.28V44.92C151.312 45.6667 151.352 46.2 151.432 46.52C151.512 46.84 151.672 47.1333 151.912 47.4C152.205 47.7467 152.605 47.9467 153.112 48C153.645 48.0533 154.205 48.08 154.792 48.08L154.472 51H154.072ZM177.058 51.4C175.351 51.4 173.978 51.08 172.938 50.44C171.898 49.7733 171.138 48.92 170.658 47.88C170.204 46.84 169.978 45.7467 169.978 44.6C169.978 43.1867 170.231 41.8667 170.738 40.64C171.271 39.4133 172.058 38.2267 173.098 37.08C174.164 35.9067 175.484 34.72 177.058 33.52C178.018 32.7733 178.964 32.0667 179.898 31.4C180.831 30.7067 181.818 29.9867 182.858 29.24C183.924 28.4933 185.098 27.6933 186.378 26.84L188.178 29.44C186.898 30.2667 185.711 31.04 184.618 31.76C183.524 32.48 182.471 33.1867 181.458 33.88C180.471 34.5733 179.484 35.2933 178.498 36.04C177.004 37.1333 175.884 38.1733 175.138 39.16C174.391 40.1467 173.884 41.08 173.618 41.96C173.378 42.84 173.258 43.7067 173.258 44.56C173.258 45.7867 173.551 46.7467 174.138 47.44C174.724 48.1333 175.671 48.48 176.978 48.48C178.098 48.48 178.991 48.1467 179.658 47.48C180.324 46.7867 180.658 45.6933 180.658 44.2C180.658 42.52 180.351 40.9733 179.738 39.56C179.151 38.1467 178.298 36.8267 177.178 35.6C176.111 34.3467 174.938 33.28 173.658 32.4C172.378 31.52 170.978 30.8533 169.458 30.4C167.938 29.92 166.271 29.68 164.458 29.68C162.724 29.68 161.484 30.1067 160.738 30.96C159.991 31.7867 159.618 32.7467 159.618 33.84C159.618 34.9867 159.911 35.8533 160.498 36.44C161.084 37 161.831 37.28 162.738 37.28C163.964 37.28 164.831 36.96 165.338 36.32C165.871 35.68 166.138 34.7867 166.138 33.64C166.138 32.7867 165.991 31.9867 165.698 31.24C165.431 30.4933 165.044 29.8267 164.538 29.24L167.378 28.8C167.884 29.3867 168.338 30.0933 168.738 30.92C169.138 31.7467 169.338 32.7333 169.338 33.88C169.338 34.6267 169.218 35.3867 168.978 36.16C168.764 36.9067 168.404 37.5867 167.898 38.2C167.391 38.7867 166.711 39.2667 165.858 39.64C165.031 40.0133 163.991 40.2 162.738 40.2C161.378 40.2 160.231 39.92 159.298 39.36C158.364 38.7733 157.644 38 157.138 37.04C156.658 36.0533 156.418 34.9733 156.418 33.8C156.418 32.5467 156.738 31.4 157.378 30.36C158.018 29.2933 158.951 28.4533 160.178 27.84C161.404 27.2 162.911 26.88 164.698 26.88C167.711 26.88 170.404 27.4667 172.778 28.64C175.178 29.7867 177.351 31.4267 179.298 33.56C180.711 35.1333 181.831 36.8133 182.658 38.6C183.511 40.3867 183.938 42.2667 183.938 44.24C183.938 46.5067 183.311 48.2667 182.058 49.52C180.831 50.7733 179.164 51.4 177.058 51.4ZM204.468 51C203.002 51 201.668 50.7333 200.468 50.2C199.295 49.64 198.228 48.92 197.268 48.04C196.335 47.16 195.482 46.2 194.708 45.16C193.962 44.0933 193.268 43.04 192.628 42L192.948 40.4C194.148 40.32 195.322 40.0533 196.468 39.6C197.642 39.1467 198.602 38.48 199.348 37.6C200.122 36.72 200.508 35.6267 200.508 34.32C200.508 32.8267 200.055 31.7067 199.148 30.96C198.242 30.1867 197.042 29.8 195.548 29.8C194.588 29.8 193.682 29.8933 192.828 30.08C192.002 30.2667 191.122 30.5867 190.188 31.04L189.148 28.28C190.135 27.8533 191.175 27.52 192.268 27.28C193.388 27.0133 194.508 26.88 195.628 26.88C197.255 26.88 198.682 27.16 199.908 27.72C201.135 28.28 202.095 29.1067 202.788 30.2C203.482 31.2933 203.828 32.6533 203.828 34.28C203.828 35.72 203.508 37.0133 202.868 38.16C202.255 39.28 201.415 40.24 200.348 41.04C199.282 41.84 198.095 42.4533 196.788 42.88C195.482 43.28 194.162 43.48 192.828 43.48C191.602 43.48 190.682 43.2933 190.068 42.92C189.455 42.5467 189.148 41.92 189.148 41.04C189.148 40.3733 189.375 39.8667 189.828 39.52C190.282 39.1467 190.868 38.96 191.588 38.96C192.282 38.96 192.962 39.1067 193.628 39.4C194.295 39.6933 195.068 40.28 195.948 41.16H195.428C196.682 42.9733 197.788 44.3867 198.748 45.4C199.735 46.3867 200.708 47.0667 201.668 47.44C202.628 47.8133 203.695 48 204.868 48H205.428L205.068 51H204.468Z" fill="white"/>
</svg>
