<svg width="201" height="46" viewBox="0 0 201 46" fill="none" xmlns="http://www.w3.org/2000/svg">
<path fill-rule="evenodd" clip-rule="evenodd" d="M9.79988 0H190.807C196.086 0 200.404 4.31769 200.404 9.59649V35.5685C200.404 40.8494 196.086 45.1671 190.807 45.1671H9.79988C4.52025 45.1671 0.202148 40.8494 0.202148 35.5685V9.59649C0.202148 4.31769 4.52025 0 9.79988 0Z" fill="#05A310"/>
<path d="M61.2365 29.116C60.3778 29.116 59.5658 28.9947 58.8005 28.752C58.0351 28.5093 57.3258 28.0987 56.6725 27.52C56.0191 26.9227 55.4311 26.1293 54.9085 25.14L55.4965 23.516C56.5418 23.3667 57.4285 22.9747 58.1565 22.34C58.8845 21.6867 59.2485 20.8933 59.2485 19.96C59.2485 19.064 58.9871 18.3733 58.4645 17.888C57.9605 17.4027 57.1578 17.16 56.0565 17.16C55.6458 17.16 55.1791 17.216 54.6565 17.328C54.1525 17.4213 53.6858 17.5707 53.2565 17.776L52.5005 15.872C52.9485 15.6667 53.4991 15.4893 54.1525 15.34C54.8058 15.1907 55.4685 15.116 56.1405 15.116C57.2791 15.116 58.2405 15.312 59.0245 15.704C59.8271 16.0773 60.4338 16.628 60.8445 17.356C61.2738 18.084 61.4885 18.9707 61.4885 20.016C61.4885 21.0427 61.1805 21.9667 60.5645 22.788C59.9671 23.5907 59.1738 24.2253 58.1845 24.692C57.1951 25.14 56.1031 25.364 54.9085 25.364C54.4045 25.364 53.9845 25.2987 53.6485 25.168C53.3125 25.0373 53.0511 24.8507 52.8645 24.608C52.6965 24.3467 52.6125 24.0387 52.6125 23.684C52.6125 23.3107 52.7431 22.9933 53.0045 22.732C53.2845 22.452 53.7045 22.312 54.2645 22.312C54.8431 22.312 55.3191 22.4333 55.6925 22.676C56.0658 22.9 56.4578 23.2547 56.8685 23.74L57.2605 24.832C57.5965 25.56 58.1005 26.12 58.7725 26.512C59.4445 26.904 60.2098 27.1 61.0685 27.1C61.7778 27.1 62.3845 26.9973 62.8885 26.792C63.3925 26.5867 63.8031 26.3067 64.1205 25.952C64.5871 25.4293 64.8858 24.832 65.0165 24.16C65.1658 23.488 65.2405 22.6387 65.2405 21.612V19.484L67.4805 19.764V22.228C67.4805 23.7587 67.2098 25.0373 66.6685 26.064C66.1458 27.0907 65.4085 27.856 64.4565 28.36C63.5231 28.864 62.4498 29.116 61.2365 29.116ZM69.1045 25.616C68.6378 25.616 68.1805 25.532 67.7325 25.364C67.2845 25.196 66.8738 24.8973 66.5005 24.468C66.1271 24.0387 65.8098 23.4413 65.5485 22.676L67.1725 22.032C67.3218 22.6293 67.5645 23.04 67.9005 23.264C68.2365 23.488 68.6285 23.6 69.0765 23.6C69.7485 23.6 70.3271 23.4227 70.8125 23.068C71.2978 22.6947 71.7458 22.1907 72.1565 21.556L72.6325 23.852C72.1658 24.412 71.6618 24.8507 71.1205 25.168C70.5978 25.4667 69.9258 25.616 69.1045 25.616ZM75.6005 32C74.7978 32 74.1258 31.916 73.5845 31.748C73.0618 31.5613 72.6418 31.3 72.3245 30.964C72.0258 30.6467 71.8018 30.2547 71.6525 29.788C71.5218 29.3213 71.4565 28.6773 71.4565 27.856V15.116L73.6965 15.424V27.744C73.6965 28.248 73.7245 28.6213 73.7805 28.864C73.8365 29.088 73.9205 29.2747 74.0325 29.424C74.2378 29.6853 74.5365 29.844 74.9285 29.9C75.3391 29.9373 75.7405 29.956 76.1325 29.956L75.9085 32H75.6005ZM86.7952 32C85.7499 32 84.8072 31.8133 83.9672 31.44C83.1459 31.048 82.3992 30.544 81.7272 29.928C81.0739 29.312 80.4765 28.64 79.9352 27.912C79.4125 27.1653 78.9272 26.428 78.4792 25.7L78.7872 24.58C79.5899 24.4867 80.3552 24.2813 81.0832 23.964C81.8299 23.628 82.4365 23.1613 82.9032 22.564C83.3885 21.9667 83.6312 21.2293 83.6312 20.352C83.6312 19.3067 83.3325 18.5133 82.7352 17.972C82.1379 17.4307 81.3445 17.16 80.3552 17.16C79.7205 17.16 79.1232 17.2253 78.5632 17.356C78.0219 17.4867 77.4245 17.7107 76.7712 18.028L76.0432 16.096C76.7339 15.7973 77.4525 15.564 78.1992 15.396C78.9459 15.2093 79.6925 15.116 80.4392 15.116C81.5405 15.116 82.4925 15.312 83.2952 15.704C84.1165 16.096 84.7512 16.6747 85.1992 17.44C85.6659 18.2053 85.8992 19.1573 85.8992 20.296C85.8992 21.304 85.6845 22.2093 85.2552 23.012C84.8445 23.796 84.2845 24.468 83.5752 25.028C82.8845 25.588 82.1005 26.0173 81.2232 26.316C80.3645 26.596 79.4965 26.736 78.6192 26.736C77.7605 26.736 77.1165 26.6053 76.6872 26.344C76.2579 26.064 76.0432 25.6253 76.0432 25.028C76.0432 24.5613 76.2019 24.2067 76.5192 23.964C76.8365 23.7027 77.2472 23.572 77.7512 23.572C78.2365 23.572 78.7032 23.6747 79.1512 23.88C79.6179 24.0853 80.1685 24.496 80.8032 25.112H80.4392C81.3165 26.3813 82.0912 27.3707 82.7632 28.08C83.4539 28.7707 84.1352 29.2467 84.8072 29.508C85.4792 29.7693 86.2259 29.9 87.0472 29.9H87.4392L87.1872 32H86.7952ZM87.4112 23.992C86.7952 23.992 86.1885 23.9173 85.5912 23.768C85.0125 23.6187 84.5085 23.3947 84.0792 23.096L84.3312 21.108C84.7232 21.3507 85.1712 21.5653 85.6752 21.752C86.1979 21.92 86.7485 22.004 87.3272 22.004C88.1485 22.004 88.8112 21.9107 89.3152 21.724C89.8379 21.5373 90.3885 21.2293 90.9672 20.8L91.3872 22.788C90.8459 23.1613 90.2765 23.46 89.6792 23.684C89.1005 23.8893 88.3445 23.992 87.4112 23.992ZM94.4112 32C93.7579 32 93.1419 31.9347 92.5632 31.804C92.0032 31.6547 91.5272 31.3747 91.1352 30.964C90.7805 30.5907 90.5472 30.18 90.4352 29.732C90.3232 29.2653 90.2672 28.64 90.2672 27.856V15.116L92.5072 15.424V27.744C92.5072 28.248 92.5352 28.6213 92.5912 28.864C92.6472 29.088 92.7312 29.2747 92.8432 29.424C93.0485 29.6853 93.3472 29.844 93.7392 29.9C94.1312 29.9373 94.5232 29.956 94.9152 29.956L94.6912 32H94.4112ZM90.2935 12.316C89.8455 12.316 89.4721 12.1667 89.1735 11.868C88.8748 11.5693 88.7255 11.168 88.7255 10.664C88.7255 10.16 88.8748 9.75867 89.1735 9.46C89.4721 9.16133 89.8455 9.012 90.2935 9.012C90.7228 9.012 91.0961 9.16133 91.4135 9.46C91.7121 9.75867 91.8615 10.16 91.8615 10.664C91.8615 11.168 91.7121 11.5693 91.4135 11.868C91.0961 12.1667 90.7228 12.316 90.2935 12.316ZM99.4495 30.656C98.4415 29.76 97.5361 28.8453 96.7335 27.912C95.9495 26.96 95.3241 25.9427 94.8575 24.86C94.3908 23.7773 94.1575 22.5733 94.1575 21.248C94.1575 20.016 94.4001 18.9427 94.8855 18.028C95.3895 17.1133 96.0801 16.404 96.9575 15.9C97.8535 15.3773 98.8801 15.116 100.037 15.116C100.859 15.116 101.568 15.228 102.165 15.452C102.781 15.676 103.323 16.0027 103.789 16.432C104.331 16.936 104.741 17.58 105.021 18.364C105.32 19.1293 105.469 20.156 105.469 21.444V22.508H103.229V21.584C103.229 20.7627 103.164 20.0813 103.033 19.54C102.921 18.98 102.725 18.5227 102.445 18.168C102.203 17.8507 101.885 17.608 101.493 17.44C101.101 17.2533 100.616 17.16 100.037 17.16C99.1788 17.16 98.4788 17.3653 97.9375 17.776C97.4148 18.168 97.0321 18.6813 96.7895 19.316C96.5468 19.9507 96.4255 20.6133 96.4255 21.304C96.4255 22.424 96.6308 23.4413 97.0415 24.356C97.4521 25.252 98.0028 26.092 98.6935 26.876C99.4028 27.6413 100.177 28.3973 101.017 29.144L99.4495 30.656ZM104.181 26.372C103.827 26.372 103.453 26.2693 103.061 26.064C102.688 25.84 102.343 25.56 102.025 25.224C101.727 24.8693 101.475 24.496 101.269 24.104C101.083 23.6933 100.989 23.3107 100.989 22.956C100.989 22.6387 101.111 22.368 101.353 22.144C101.596 21.9013 101.997 21.78 102.557 21.78H111.377V23.796H105.469V24.636C105.469 25.2707 105.339 25.7187 105.077 25.98C104.816 26.2413 104.517 26.372 104.181 26.372ZM114.821 32C114.019 32 113.356 31.916 112.833 31.748C112.311 31.5613 111.881 31.3 111.545 30.964C111.228 30.6467 110.995 30.2547 110.845 29.788C110.715 29.3213 110.649 28.6773 110.649 27.856V15.144L112.889 15.424V27.744C112.889 28.2667 112.917 28.64 112.973 28.864C113.029 29.088 113.141 29.2933 113.309 29.48C113.515 29.7227 113.785 29.8627 114.121 29.9C114.476 29.9373 114.877 29.956 115.325 29.956L115.101 32H114.821ZM121.11 32C120.307 32 119.645 31.916 119.122 31.748C118.599 31.5613 118.17 31.3 117.834 30.964C117.517 30.6467 117.283 30.2547 117.134 29.788C117.003 29.3213 116.938 28.6773 116.938 27.856V13.688C116.938 12.7173 117.013 11.896 117.162 11.224C117.311 10.552 117.535 9.97333 117.834 9.488C118.133 9.00267 118.497 8.58267 118.926 8.228C119.43 7.79867 120.055 7.472 120.802 7.248C121.567 7.024 122.426 6.912 123.378 6.912C124.722 6.912 125.982 7.12667 127.158 7.556C128.353 7.98533 129.51 8.57333 130.63 9.32C131.769 10.0667 132.898 10.9253 134.018 11.896L132.506 13.38C131.517 12.5213 130.518 11.7653 129.51 11.112C128.502 10.44 127.494 9.91733 126.486 9.544C125.497 9.152 124.507 8.956 123.518 8.956C122.883 8.956 122.314 9.02133 121.81 9.152C121.306 9.264 120.867 9.488 120.494 9.824C120.195 10.0853 119.943 10.412 119.738 10.804C119.551 11.196 119.411 11.6907 119.318 12.288C119.225 12.8667 119.178 13.6133 119.178 14.528V27.744C119.178 28.2667 119.206 28.64 119.262 28.864C119.318 29.088 119.43 29.2933 119.598 29.48C119.803 29.7227 120.083 29.8627 120.438 29.9C120.811 29.9373 121.203 29.956 121.614 29.956L121.39 32H121.11ZM127.54 27.492C126.439 27.492 125.468 27.2867 124.628 26.876C123.788 26.4653 123.126 25.8773 122.64 25.112C122.174 24.328 121.94 23.404 121.94 22.34C121.94 21.164 122.202 20.1747 122.724 19.372C123.266 18.5693 123.994 17.9627 124.908 17.552C125.842 17.1227 126.896 16.908 128.072 16.908C128.483 16.908 128.95 16.936 129.472 16.992C129.995 17.048 130.424 17.1227 130.76 17.216L130.396 19.176C130.079 19.12 129.743 19.0733 129.388 19.036C129.034 18.98 128.623 18.952 128.156 18.952C126.906 18.952 125.935 19.2413 125.244 19.82C124.554 20.3987 124.208 21.2293 124.208 22.312C124.208 23.3947 124.526 24.1973 125.16 24.72C125.795 25.224 126.579 25.476 127.512 25.476C128.558 25.476 129.426 25.2987 130.116 24.944C130.807 24.5893 131.479 24.104 132.132 23.488V26.12C131.554 26.4933 130.919 26.82 130.228 27.1C129.538 27.3613 128.642 27.492 127.54 27.492ZM136.136 32C135.334 32 134.662 31.916 134.12 31.748C133.598 31.5613 133.178 31.3 132.86 30.964C132.562 30.6467 132.338 30.2547 132.188 29.788C132.058 29.3213 131.992 28.6773 131.992 27.856V15.116L134.232 15.424V27.744C134.232 28.248 134.26 28.6213 134.316 28.864C134.372 29.088 134.456 29.2747 134.568 29.424C134.774 29.6853 135.072 29.844 135.464 29.9C135.875 29.9373 136.267 29.956 136.64 29.956L136.444 32H136.136ZM141.6 31.664C140.76 30.992 139.986 30.292 139.276 29.564C138.586 28.8173 138.026 28.0427 137.596 27.24C137.167 26.4373 136.952 25.588 136.952 24.692C136.952 23.964 137.074 23.32 137.316 22.76C137.559 22.2 137.904 21.724 138.352 21.332C138.912 20.8467 139.631 20.4827 140.508 20.24C141.404 19.9973 142.674 19.876 144.316 19.876H147.452V21.92H144.148C143.308 21.92 142.636 21.948 142.132 22.004C141.628 22.06 141.227 22.1533 140.928 22.284C140.63 22.396 140.359 22.5453 140.116 22.732C139.836 22.956 139.622 23.236 139.472 23.572C139.323 23.8893 139.248 24.2627 139.248 24.692C139.248 25.3267 139.398 25.9333 139.696 26.512C140.014 27.0907 140.462 27.6693 141.04 28.248C141.619 28.8267 142.3 29.4427 143.084 30.096L141.6 31.664ZM151.036 32C150.234 32 149.562 31.916 149.02 31.748C148.498 31.5613 148.078 31.3 147.76 30.964C147.462 30.6467 147.238 30.2547 147.088 29.788C146.958 29.3213 146.892 28.6773 146.892 27.856V15.116L149.132 15.424V27.744C149.132 28.248 149.16 28.6213 149.216 28.864C149.272 29.088 149.356 29.2747 149.468 29.424C149.674 29.6853 149.972 29.844 150.364 29.9C150.775 29.9373 151.167 29.956 151.54 29.956L151.344 32H151.036Z" fill="white"/>
</svg>
